<svg xmlns="http://www.w3.org/2000/svg" viewBox="0 0 126.59 127.42"><defs><style>.cls-1{fill:#fff;}.cls-2{fill:#2e3192;}.cls-3{fill:#17479e;}.cls-4{fill:#0064b1;}.cls-5{fill:#007ac2;}</style></defs><g id="Layer_2" data-name="Layer 2"><g id="Layer_1-2" data-name="Layer 1"><path class="cls-1" d="M33.81,0A83.87,83.87,0,0,0,1.66,5.73L0,6.42H0L33.81,92.78l86.1,34.64h0A92.83,92.83,0,0,0,33.81,0Z"/><circle class="cls-2" cx="113.15" cy="116.06" r="4.48"/><circle class="cls-2" cx="114.91" cy="100.89" r="4.48"/><circle class="cls-2" cx="114.01" cy="85.65" r="4.48"/><circle class="cls-2" cx="110.47" cy="70.8" r="4.48"/><circle class="cls-2" cx="104.41" cy="56.79" r="4.48"/><circle class="cls-2" cx="96" cy="44.04" r="4.48"/><circle class="cls-2" cx="85.52" cy="32.95" r="4.48"/><circle class="cls-2" cx="73.26" cy="23.85" r="4.48"/><circle class="cls-2" cx="59.61" cy="17.01" r="4.48"/><circle class="cls-2" cx="44.98" cy="12.65" r="4.48"/><circle class="cls-2" cx="29.81" cy="10.89" r="4.48"/><circle class="cls-2" cx="14.57" cy="11.8" r="4.48"/><circle class="cls-3" cx="98.42" cy="111.81" r="3.56"/><circle class="cls-3" cx="99.81" cy="99.78" r="3.56"/><circle class="cls-3" cx="99.1" cy="87.69" r="3.56"/><circle class="cls-3" cx="96.29" cy="75.91" r="3.56"/><circle class="cls-3" cx="91.48" cy="64.79" r="3.56"/><circle class="cls-3" cx="84.82" cy="54.68" r="3.56"/><circle class="cls-3" cx="76.5" cy="45.88" r="3.56"/><circle class="cls-3" cx="66.77" cy="38.66" r="3.56"/><circle class="cls-3" cx="55.94" cy="33.23" r="3.56"/><circle class="cls-3" cx="44.34" cy="29.77" r="3.56"/><circle class="cls-3" cx="32.31" cy="28.38" r="3.56"/><circle class="cls-3" cx="20.22" cy="29.1" r="3.56"/><circle class="cls-4" cx="84.28" cy="106.15" r="2.73"/><circle class="cls-4" cx="85.35" cy="96.92" r="2.73"/><circle class="cls-4" cx="84.8" cy="87.65" r="2.73"/><circle class="cls-4" cx="82.65" cy="78.62" r="2.73"/><circle class="cls-4" cx="78.96" cy="70.09" r="2.73"/><circle class="cls-4" cx="73.85" cy="62.34" r="2.73"/><circle class="cls-4" cx="67.47" cy="55.59" r="2.73"/><circle class="cls-4" cx="60.01" cy="50.06" r="2.73"/><circle class="cls-4" cx="51.71" cy="45.9" r="2.73"/><circle class="cls-4" cx="42.81" cy="43.24" r="2.73"/><circle class="cls-4" cx="33.59" cy="42.18" r="2.73"/><circle class="cls-4" cx="24.32" cy="42.73" r="2.73"/><circle class="cls-5" cx="71.26" cy="99.85" r="1.93"/><circle class="cls-5" cx="72.01" cy="93.31" r="1.93"/><circle class="cls-5" cx="71.62" cy="86.74" r="1.93"/><circle class="cls-5" cx="70.1" cy="80.33" r="1.93"/><circle class="cls-5" cx="67.48" cy="74.29" r="1.93"/><circle class="cls-5" cx="63.86" cy="68.79" r="1.93"/><circle class="cls-5" cx="59.34" cy="64.01" r="1.93"/><circle class="cls-5" cx="54.05" cy="60.08" r="1.93"/><circle class="cls-5" cx="48.16" cy="57.13" r="1.93"/><circle class="cls-5" cx="41.85" cy="55.25" r="1.93"/><circle class="cls-5" cx="35.31" cy="54.49" r="1.93"/><circle class="cls-5" cx="28.74" cy="54.88" r="1.93"/></g></g></svg>